<svg id="그룹_3528" data-name="그룹 3528" xmlns="http://www.w3.org/2000/svg" width="32" height="32" viewBox="0 0 32 32">
  <rect id="Color" width="32" height="32" rx="5" transform="translate(0)" fill="#ff457e"/>
  <g id="그룹_3524" data-name="그룹 3524" transform="translate(5.818 5.818)">
    <path id="패스_21254" data-name="패스 21254" d="M4395.407,6.508a11.844,11.844,0,0,0-.438-3.658,5.13,5.13,0,0,0-3.187-3.191,11.759,11.759,0,0,0-3.822-.467q-2.848,0-5.7.009c-.607.024-1.216.017-1.822.084a6.092,6.092,0,0,0-3.429,1.27,5.188,5.188,0,0,0-1.742,2.764,16.079,16.079,0,0,0-.3,3.186c0,1.78-.009,3.559,0,5.339a11.553,11.553,0,0,0,.491,3.675,5.134,5.134,0,0,0,3.166,3.08,9.541,9.541,0,0,0,3.2.433c.949.037,1.9.015,2.848.019,1.713-.046,3.431.044,5.141-.086a5.992,5.992,0,0,0,3.871-1.572,5.756,5.756,0,0,0,1.653-3.956C4395.463,11.131,4395.383,8.818,4395.407,6.508Zm-1.929,7.023a5.3,5.3,0,0,1-.354,1.507,3.312,3.312,0,0,1-2.055,1.874,9.89,9.89,0,0,1-2.75.344c-1.633,0-3.265.053-4.9.007a23.477,23.477,0,0,1-3.121-.108,3.737,3.737,0,0,1-2.731-1.5,6.24,6.24,0,0,1-.741-3.362c0-1.426-.021-2.85-.006-4.275.021-.891-.023-1.784.046-2.674a4.368,4.368,0,0,1,1.169-3.242,5.369,5.369,0,0,1,3.7-1.08c2.19-.046,4.38-.043,6.571-.03a6.65,6.65,0,0,1,3.712.824,3.567,3.567,0,0,1,1.395,2.425,24.687,24.687,0,0,1,.13,3.335c.031,1.067.024,2.136,0,3.2C4393.557,11.694,4393.539,12.613,4393.478,13.53Z" transform="translate(-4374.963 0.809)" fill="#fff"/>
    <path id="패스_21255" data-name="패스 21255" d="M4484.139,24.48a1.267,1.267,0,0,0-.789,1.48,1.312,1.312,0,0,0,1.608.925,1.272,1.272,0,0,0,.917-1.578A1.313,1.313,0,0,0,4484.139,24.48Z" transform="translate(-4468.935 -21.036)" fill="#fff"/>
    <path id="패스_21256" data-name="패스 21256" d="M4420.721,36.421a5.329,5.329,0,0,0-3.823-.843,5.275,5.275,0,0,0-3.614,2.329,5.038,5.038,0,0,0-.65,3.985,5.108,5.108,0,0,0,2.258,3.044,5.329,5.329,0,0,0,3.738.719,5.267,5.267,0,0,0,3.648-2.5,5.025,5.025,0,0,0,.556-3.733A5.1,5.1,0,0,0,4420.721,36.421Zm-.258,6.157a3.444,3.444,0,0,1-2.445,1.334,3.387,3.387,0,0,1-3.589-2.454,3.26,3.26,0,0,1,.611-2.863,3.475,3.475,0,0,1,2.127-1.238,3.427,3.427,0,0,1,3.789,2.217A3.243,3.243,0,0,1,4420.463,42.578Z" transform="translate(-4407.498 -30.693)" fill="#fff"/>
  </g>
</svg>
