<svg xmlns="http://www.w3.org/2000/svg" xmlns:xlink="http://www.w3.org/1999/xlink" width="82" height="65" viewBox="0 0 82 65"><defs><clipPath id="a"><rect width="82" height="65" fill="none"/></clipPath></defs><g transform="translate(0 0)"><g transform="translate(0 0)"><g clip-path="url(#a)"><g clip-path="url(#a)"><path d="M229.132,298.206a23.694,23.694,0,1,1,24.1-23.693,23.9,23.9,0,0,1-24.1,23.693" transform="translate(-171.232 -233.205)" fill="#f4a000"/><path d="M228.344,297.645a23.694,23.694,0,1,1,24.1-23.693,23.9,23.9,0,0,1-24.1,23.693" transform="translate(-170.682 -232.811)" fill="#f4a000"/><path d="M227.554,297.085a23.694,23.694,0,1,1,24.1-23.692,23.9,23.9,0,0,1-24.1,23.692" transform="translate(-170.131 -232.418)" fill="#f49f00"/><path d="M226.765,296.526a23.694,23.694,0,1,1,24.1-23.692,23.9,23.9,0,0,1-24.1,23.692" transform="translate(-169.58 -232.024)" fill="#f39e00"/><path d="M225.973,295.967a23.694,23.694,0,1,1,24.1-23.692,23.9,23.9,0,0,1-24.1,23.692" transform="translate(-169.027 -231.631)" fill="#f39d00"/><path d="M225.182,295.409a23.694,23.694,0,1,1,24.1-23.692,23.9,23.9,0,0,1-24.1,23.692" transform="translate(-168.475 -231.239)" fill="#f39c00"/><path d="M224.388,294.853a23.694,23.694,0,1,1,24.1-23.693,23.9,23.9,0,0,1-24.1,23.693" transform="translate(-167.92 -230.848)" fill="#f39c00"/><path d="M223.6,294.3A23.694,23.694,0,1,1,247.7,270.6,23.9,23.9,0,0,1,223.6,294.3" transform="translate(-167.367 -230.456)" fill="#f39b00"/><path d="M222.8,293.741a23.694,23.694,0,1,1,24.1-23.692,23.9,23.9,0,0,1-24.1,23.692" transform="translate(-166.811 -230.066)" fill="#f39a00"/><path d="M222,293.187a23.694,23.694,0,1,1,24.1-23.692A23.9,23.9,0,0,1,222,293.187" transform="translate(-166.256 -229.676)" fill="#f39900"/><path d="M221.206,292.633a23.694,23.694,0,1,1,24.1-23.692,23.9,23.9,0,0,1-24.1,23.692" transform="translate(-165.699 -229.287)" fill="#f29800"/><path d="M220.408,292.081a23.694,23.694,0,1,1,24.1-23.692,23.9,23.9,0,0,1-24.1,23.692" transform="translate(-165.142 -228.898)" fill="#f29800"/><path d="M219.609,291.53a23.694,23.694,0,1,1,24.1-23.692,23.9,23.9,0,0,1-24.1,23.692" transform="translate(-164.584 -228.511)" fill="#f29700"/><path d="M218.809,290.98a23.694,23.694,0,1,1,24.1-23.692,23.9,23.9,0,0,1-24.1,23.692" transform="translate(-164.026 -228.124)" fill="#f29600"/><path d="M218.007,290.431a23.694,23.694,0,1,1,24.1-23.692,23.9,23.9,0,0,1-24.1,23.692" transform="translate(-163.466 -227.738)" fill="#f29500"/><path d="M217.205,289.883a23.694,23.694,0,1,1,24.1-23.692,23.9,23.9,0,0,1-24.1,23.692" transform="translate(-162.906 -227.353)" fill="#f29500"/><path d="M216.4,289.337a23.694,23.694,0,1,1,24.1-23.692,23.9,23.9,0,0,1-24.1,23.692" transform="translate(-162.345 -226.969)" fill="#f29400"/><path d="M215.6,288.793A23.694,23.694,0,1,1,239.7,265.1a23.9,23.9,0,0,1-24.1,23.692" transform="translate(-161.784 -226.585)" fill="#f29300"/><path d="M214.793,288.249a23.694,23.694,0,1,1,24.1-23.692,23.9,23.9,0,0,1-24.1,23.692" transform="translate(-161.222 -226.204)" fill="#f19200"/><path d="M213.986,287.707a23.694,23.694,0,1,1,24.1-23.692,23.9,23.9,0,0,1-24.1,23.692" transform="translate(-160.659 -225.822)" fill="#f19100"/><path d="M213.179,287.167a23.694,23.694,0,1,1,24.1-23.692,23.9,23.9,0,0,1-24.1,23.692" transform="translate(-160.095 -225.443)" fill="#f19000"/><path d="M212.371,286.628a23.694,23.694,0,1,1,24.1-23.692,23.9,23.9,0,0,1-24.1,23.692" transform="translate(-159.531 -225.064)" fill="#f19000"/><path d="M211.563,286.091a23.694,23.694,0,1,1,24.1-23.692,23.9,23.9,0,0,1-24.1,23.692" transform="translate(-158.967 -224.686)" fill="#f18f00"/><path d="M210.753,285.555a23.694,23.694,0,1,1,24.1-23.692,23.9,23.9,0,0,1-24.1,23.692" transform="translate(-158.402 -224.309)" fill="#f18e00"/><path d="M209.941,285.021a23.694,23.694,0,1,1,24.1-23.692,23.9,23.9,0,0,1-24.1,23.692" transform="translate(-157.835 -223.933)" fill="#f18d00"/><path d="M209.13,284.49a23.694,23.694,0,1,1,24.1-23.692,23.9,23.9,0,0,1-24.1,23.692" transform="translate(-157.269 -223.56)" fill="#f08c00"/><path d="M208.317,283.96a23.694,23.694,0,1,1,24.1-23.691,23.9,23.9,0,0,1-24.1,23.691" transform="translate(-156.701 -223.187)" fill="#f08c00"/><path d="M207.5,283.431a23.694,23.694,0,1,1,24.1-23.692,23.9,23.9,0,0,1-24.1,23.692" transform="translate(-156.133 -222.815)" fill="#f08b00"/><path d="M206.688,282.905a23.694,23.694,0,1,1,24.1-23.692,23.9,23.9,0,0,1-24.1,23.692" transform="translate(-155.564 -222.445)" fill="#f08a00"/><path d="M205.873,282.381a23.694,23.694,0,1,1,24.1-23.691,23.9,23.9,0,0,1-24.1,23.691" transform="translate(-154.994 -222.077)" fill="#f08900"/><path d="M205.056,281.858a23.694,23.694,0,1,1,24.1-23.691,23.9,23.9,0,0,1-24.1,23.691" transform="translate(-154.424 -221.709)" fill="#f08800"/><path d="M204.239,281.338a23.694,23.694,0,1,1,24.1-23.691,23.9,23.9,0,0,1-24.1,23.691" transform="translate(-153.854 -221.343)" fill="#f08700"/><path d="M203.42,280.82a23.694,23.694,0,1,1,24.1-23.691,23.9,23.9,0,0,1-24.1,23.691" transform="translate(-153.282 -220.979)" fill="#f08700"/><path d="M202.6,280.3a23.694,23.694,0,1,1,24.1-23.691A23.9,23.9,0,0,1,202.6,280.3" transform="translate(-152.711 -220.616)" fill="#f08600"/><path d="M201.781,279.792a23.694,23.694,0,1,1,24.1-23.691,23.9,23.9,0,0,1-24.1,23.691" transform="translate(-152.138 -220.256)" fill="#ef8500"/><path d="M200.96,279.28a23.694,23.694,0,1,1,24.1-23.692,23.9,23.9,0,0,1-24.1,23.692" transform="translate(-151.565 -219.896)" fill="#ef8400"/><path d="M200.138,278.771a23.694,23.694,0,1,1,24.1-23.691,23.9,23.9,0,0,1-24.1,23.691" transform="translate(-150.991 -219.538)" fill="#ef8300"/><path d="M199.315,278.264a23.694,23.694,0,1,1,24.1-23.691,23.9,23.9,0,0,1-24.1,23.691" transform="translate(-150.417 -219.181)" fill="#ef8200"/><path d="M198.491,277.76a23.694,23.694,0,1,1,24.1-23.691,23.9,23.9,0,0,1-24.1,23.691" transform="translate(-149.841 -218.827)" fill="#ef8200"/><path d="M197.667,277.259a23.694,23.694,0,1,1,24.1-23.691,23.9,23.9,0,0,1-24.1,23.691" transform="translate(-149.266 -218.475)" fill="#ef8100"/><path d="M196.842,276.76a23.694,23.694,0,1,1,24.1-23.691,23.9,23.9,0,0,1-24.1,23.691" transform="translate(-148.69 -218.124)" fill="#ef8000"/><path d="M196.015,276.263a23.694,23.694,0,1,1,24.1-23.691,23.9,23.9,0,0,1-24.1,23.691" transform="translate(-148.113 -217.774)" fill="#ee8000"/><path d="M195.188,275.77a23.694,23.694,0,1,1,24.1-23.691,23.9,23.9,0,0,1-24.1,23.691" transform="translate(-147.535 -217.428)" fill="#ee7f00"/><path d="M194.36,275.279a23.694,23.694,0,1,1,24.1-23.691,23.9,23.9,0,0,1-24.1,23.691" transform="translate(-146.957 -217.082)" fill="#ee7e00"/><path d="M193.532,274.791a23.694,23.694,0,1,1,24.1-23.691,23.9,23.9,0,0,1-24.1,23.691" transform="translate(-146.379 -216.739)" fill="#ee7d00"/><path d="M192.7,274.305a23.694,23.694,0,1,1,24.1-23.691,23.9,23.9,0,0,1-24.1,23.691" transform="translate(-145.801 -216.397)" fill="#ee7d00"/><path d="M191.871,273.823a23.694,23.694,0,1,1,24.1-23.691,23.9,23.9,0,0,1-24.1,23.691" transform="translate(-145.22 -216.058)" fill="#ee7c00"/><path d="M191.04,273.344a23.694,23.694,0,1,1,24.1-23.691,23.9,23.9,0,0,1-24.1,23.691" transform="translate(-144.64 -215.721)" fill="#ee7b00"/><path d="M190.208,272.867a23.694,23.694,0,1,1,24.1-23.69,23.9,23.9,0,0,1-24.1,23.69" transform="translate(-144.059 -215.386)" fill="#ee7a00"/><path d="M189.376,272.394a23.694,23.694,0,1,1,24.1-23.691,23.9,23.9,0,0,1-24.1,23.691" transform="translate(-143.478 -215.053)" fill="#ed7900"/><path d="M188.542,271.923a23.694,23.694,0,1,1,24.1-23.691,23.9,23.9,0,0,1-24.1,23.691" transform="translate(-142.896 -214.722)" fill="#ed7800"/><path d="M187.708,271.456a23.694,23.694,0,1,1,24.1-23.69,23.9,23.9,0,0,1-24.1,23.69" transform="translate(-142.313 -214.394)" fill="#ed7700"/><path d="M186.872,270.992a23.694,23.694,0,1,1,24.1-23.691,23.9,23.9,0,0,1-24.1,23.691" transform="translate(-141.73 -214.067)" fill="#ed7700"/><path d="M186.036,270.531a23.694,23.694,0,1,1,24.1-23.691,23.9,23.9,0,0,1-24.1,23.691" transform="translate(-141.146 -213.743)" fill="#ed7600"/><path d="M185.2,270.073a23.694,23.694,0,1,1,24.1-23.69,23.9,23.9,0,0,1-24.1,23.69" transform="translate(-140.562 -213.421)" fill="#ed7500"/><path d="M184.361,269.619a23.693,23.693,0,1,1,24.1-23.691,23.9,23.9,0,0,1-24.1,23.691" transform="translate(-139.977 -213.102)" fill="#ed7400"/><path d="M183.523,269.168a23.694,23.694,0,1,1,24.1-23.69,23.9,23.9,0,0,1-24.1,23.69" transform="translate(-139.391 -212.785)" fill="#ed7300"/><path d="M182.684,268.72a23.694,23.694,0,1,1,24.1-23.69,23.9,23.9,0,0,1-24.1,23.69" transform="translate(-138.806 -212.469)" fill="#ed7200"/><path d="M181.844,268.276a23.694,23.694,0,1,1,24.1-23.69,23.9,23.9,0,0,1-24.1,23.69" transform="translate(-138.22 -212.157)" fill="#ec7100"/><path d="M181,267.836a23.694,23.694,0,1,1,24.1-23.69,23.9,23.9,0,0,1-24.1,23.69" transform="translate(-137.633 -211.848)" fill="#ec7000"/><path d="M180.162,267.4a23.694,23.694,0,1,1,24.1-23.69,23.9,23.9,0,0,1-24.1,23.69" transform="translate(-137.046 -211.54)" fill="#ec7000"/><path d="M179.32,266.966a23.694,23.694,0,1,1,24.1-23.69,23.9,23.9,0,0,1-24.1,23.69" transform="translate(-136.457 -211.236)" fill="#ec6f00"/><path d="M178.477,266.536a23.694,23.694,0,1,1,24.1-23.69,23.9,23.9,0,0,1-24.1,23.69" transform="translate(-135.869 -210.934)" fill="#ec6e00"/><path d="M177.633,266.11a23.694,23.694,0,1,1,24.1-23.69,23.9,23.9,0,0,1-24.1,23.69" transform="translate(-135.28 -210.634)" fill="#ec6d00"/><path d="M176.789,265.689a23.694,23.694,0,1,1,24.1-23.69,23.9,23.9,0,0,1-24.1,23.69" transform="translate(-134.69 -210.338)" fill="#ec6c01"/><path d="M175.944,265.27a23.694,23.694,0,1,1,24.1-23.69,23.9,23.9,0,0,1-24.1,23.69" transform="translate(-134.101 -210.043)" fill="#ec6b01"/><path d="M175.1,264.856a23.694,23.694,0,1,1,24.1-23.69,23.9,23.9,0,0,1-24.1,23.69" transform="translate(-133.51 -209.752)" fill="#ec6b01"/><path d="M174.252,264.446a23.694,23.694,0,1,1,24.1-23.69,23.9,23.9,0,0,1-24.1,23.69" transform="translate(-132.919 -209.464)" fill="#eb6904"/><path d="M173.4,264.04a23.694,23.694,0,1,1,24.1-23.69,23.9,23.9,0,0,1-24.1,23.69" transform="translate(-132.327 -209.178)" fill="#eb6804"/><path d="M172.556,263.637a23.694,23.694,0,1,1,24.1-23.69,23.9,23.9,0,0,1-24.1,23.69" transform="translate(-131.736 -208.895)" fill="#eb6705"/><path d="M171.708,263.239a23.694,23.694,0,1,1,24.1-23.69,23.9,23.9,0,0,1-24.1,23.69" transform="translate(-131.143 -208.615)" fill="#eb6705"/><path d="M170.859,262.845a23.694,23.694,0,1,1,24.1-23.69,23.9,23.9,0,0,1-24.1,23.69" transform="translate(-130.551 -208.338)" fill="#eb6605"/><path d="M170.008,262.456a23.693,23.693,0,1,1,24.1-23.69,23.9,23.9,0,0,1-24.1,23.69" transform="translate(-129.957 -208.064)" fill="#eb6506"/><path d="M169.158,262.07a23.694,23.694,0,1,1,24.1-23.689,23.9,23.9,0,0,1-24.1,23.689" transform="translate(-129.363 -207.793)" fill="#eb6406"/><path d="M168.307,261.689a23.694,23.694,0,1,1,24.1-23.69,23.9,23.9,0,0,1-24.1,23.69" transform="translate(-128.769 -207.525)" fill="#eb6307"/><path d="M167.454,261.312a23.694,23.694,0,1,1,24.1-23.689,23.9,23.9,0,0,1-24.1,23.689" transform="translate(-128.174 -207.26)" fill="#eb6207"/><path d="M166.6,260.94a23.694,23.694,0,1,1,24.1-23.69,23.9,23.9,0,0,1-24.1,23.69" transform="translate(-127.579 -206.998)" fill="#eb6207"/><path d="M165.748,260.572a23.694,23.694,0,1,1,24.1-23.69,23.9,23.9,0,0,1-24.1,23.69" transform="translate(-126.982 -206.739)" fill="#ea6008"/><path d="M164.894,260.209a23.694,23.694,0,1,1,24.1-23.689,23.9,23.9,0,0,1-24.1,23.689" transform="translate(-126.386 -206.484)" fill="#ea5f0a"/><path d="M164.04,259.85a23.694,23.694,0,1,1,24.1-23.689,23.9,23.9,0,0,1-24.1,23.689" transform="translate(-125.79 -206.232)" fill="#ea5e0a"/><path d="M163.185,259.5a23.694,23.694,0,1,1,24.1-23.689,23.9,23.9,0,0,1-24.1,23.689" transform="translate(-125.193 -205.983)" fill="#ea5d0a"/><path d="M162.329,259.146a23.694,23.694,0,1,1,24.1-23.689,23.9,23.9,0,0,1-24.1,23.689" transform="translate(-124.596 -205.736)" fill="#ea5c0b"/><path d="M161.472,258.8a23.694,23.694,0,1,1,24.1-23.689,23.9,23.9,0,0,1-24.1,23.689" transform="translate(-123.997 -205.495)" fill="#ea5b0b"/><path d="M160.615,258.462a23.694,23.694,0,1,1,24.1-23.689,23.9,23.9,0,0,1-24.1,23.689" transform="translate(-123.399 -205.255)" fill="#ea5a0b"/><path d="M159.757,258.127a23.693,23.693,0,1,1,24.1-23.689,23.9,23.9,0,0,1-24.1,23.689" transform="translate(-122.801 -205.02)" fill="#ea590c"/><path d="M158.9,257.8A23.694,23.694,0,1,1,183,234.108,23.9,23.9,0,0,1,158.9,257.8" transform="translate(-122.201 -204.788)" fill="#ea590c"/><path d="M158.041,257.471a23.694,23.694,0,1,1,24.1-23.689,23.9,23.9,0,0,1-24.1,23.689" transform="translate(-121.602 -204.558)" fill="#ea590c"/><path d="M157.18,257.151a23.694,23.694,0,1,1,24.1-23.689,23.9,23.9,0,0,1-24.1,23.689" transform="translate(-121.001 -204.333)" fill="#e9580c"/><path d="M156.32,256.836a23.693,23.693,0,1,1,24.1-23.689,23.9,23.9,0,0,1-24.1,23.689" transform="translate(-120.401 -204.112)" fill="#e9560d"/><path d="M155.46,256.526a23.693,23.693,0,1,1,24.1-23.689,23.9,23.9,0,0,1-24.1,23.689" transform="translate(-119.8 -203.894)" fill="#e9550e"/><path d="M154.6,256.221a23.694,23.694,0,1,1,24.1-23.689,23.9,23.9,0,0,1-24.1,23.689" transform="translate(-119.198 -203.679)" fill="#e9540f"/><path d="M153.736,255.921a23.693,23.693,0,1,1,24.1-23.689,23.9,23.9,0,0,1-24.1,23.689" transform="translate(-118.597 -203.468)" fill="#e9530f"/><path d="M152.874,255.627a23.693,23.693,0,1,1,24.1-23.689,23.9,23.9,0,0,1-24.1,23.689" transform="translate(-117.995 -203.262)" fill="#e9520f"/><path d="M152.011,255.338a23.693,23.693,0,1,1,24.1-23.689,23.9,23.9,0,0,1-24.1,23.689" transform="translate(-117.392 -203.058)" fill="#e9510f"/><path d="M151.18,255.064a23.694,23.694,0,1,1,24.1-23.689,23.9,23.9,0,0,1-24.1,23.689" transform="translate(-116.812 -202.866)" fill="#e95010"/><path d="M150.408,254.818a23.693,23.693,0,1,1,24.1-23.689,23.9,23.9,0,0,1-24.1,23.689" transform="translate(-116.273 -202.693)" fill="#e94f10"/><path d="M149.6,254.568a23.693,23.693,0,1,1,24.1-23.689,23.9,23.9,0,0,1-24.1,23.689" transform="translate(-115.709 -202.517)" fill="#e94f10"/><path d="M148.758,254.317a23.693,23.693,0,1,1,24.1-23.689,23.9,23.9,0,0,1-24.1,23.689" transform="translate(-115.121 -202.34)" fill="#e94e10"/><path d="M147.888,254.065a23.694,23.694,0,1,1,24.1-23.689,23.9,23.9,0,0,1-24.1,23.689" transform="translate(-114.514 -202.163)" fill="#e84d10"/><path d="M146.989,253.817a23.693,23.693,0,1,1,24.1-23.689,23.9,23.9,0,0,1-24.1,23.689" transform="translate(-113.887 -201.989)" fill="#e84a11"/><path d="M146.066,253.573a23.693,23.693,0,1,1,24.1-23.689,23.9,23.9,0,0,1-24.1,23.689" transform="translate(-113.242 -201.817)" fill="#e84911"/><path d="M145.121,253.336a23.693,23.693,0,1,1,24.1-23.689,23.9,23.9,0,0,1-24.1,23.689" transform="translate(-112.583 -201.65)" fill="#e84812"/><path d="M144.156,253.107a23.693,23.693,0,1,1,24.1-23.689,23.9,23.9,0,0,1-24.1,23.689" transform="translate(-111.909 -201.489)" fill="#e84712"/><path d="M143.175,252.889a23.693,23.693,0,1,1,24.1-23.689,23.9,23.9,0,0,1-24.1,23.689" transform="translate(-111.224 -201.336)" fill="#e84612"/><path d="M142.181,252.684a23.693,23.693,0,1,1,24.1-23.689,23.9,23.9,0,0,1-24.1,23.689" transform="translate(-110.53 -201.192)" fill="#e84512"/><path d="M141.174,252.493a23.693,23.693,0,1,1,24.1-23.689,23.9,23.9,0,0,1-24.1,23.689" transform="translate(-109.827 -201.058)" fill="#e84413"/><path d="M140.159,252.319a23.693,23.693,0,1,1,24.1-23.689,23.9,23.9,0,0,1-24.1,23.689" transform="translate(-109.118 -200.935)" fill="#e84413"/><path d="M139.138,252.164a23.693,23.693,0,1,1,24.1-23.689,23.9,23.9,0,0,1-24.1,23.689" transform="translate(-108.406 -200.826)" fill="#e84313"/><path d="M138.113,252.029a23.693,23.693,0,1,1,24.1-23.689,23.9,23.9,0,0,1-24.1,23.689" transform="translate(-107.69 -200.731)" fill="#e74113"/><path d="M137.088,251.917a23.693,23.693,0,1,1,24.1-23.689,23.9,23.9,0,0,1-24.1,23.689" transform="translate(-106.975 -200.653)" fill="#e73f13"/><path d="M136.065,251.829a23.693,23.693,0,1,1,24.1-23.688,23.9,23.9,0,0,1-24.1,23.688" transform="translate(-106.26 -200.591)" fill="#e73e13"/><path d="M135.046,251.768a23.693,23.693,0,1,1,24.1-23.688,23.9,23.9,0,0,1-24.1,23.688" transform="translate(-105.549 -200.548)" fill="#e73d14"/><path d="M134.035,251.736a23.693,23.693,0,1,1,24.1-23.688,23.9,23.9,0,0,1-24.1,23.688" transform="translate(-104.843 -200.525)" fill="#e73b15"/><path d="M133.034,251.735a23.693,23.693,0,1,1,24.1-23.688,23.9,23.9,0,0,1-24.1,23.688" transform="translate(-104.144 -200.524)" fill="#e73a15"/><path d="M132.046,251.766a23.693,23.693,0,1,1,24.1-23.688,23.9,23.9,0,0,1-24.1,23.688" transform="translate(-103.455 -200.546)" fill="#e73915"/><path d="M131.073,251.832a23.693,23.693,0,1,1,24.1-23.688,23.9,23.9,0,0,1-24.1,23.688" transform="translate(-102.775 -200.593)" fill="#e73815"/><path d="M130.118,251.935a23.693,23.693,0,1,1,24.1-23.688,23.9,23.9,0,0,1-24.1,23.688" transform="translate(-102.109 -200.665)" fill="#e73815"/><path d="M129.183,252.076a23.694,23.694,0,1,1,24.1-23.688,23.9,23.9,0,0,1-24.1,23.688" transform="translate(-101.456 -200.764)" fill="#e73615"/><path d="M128.272,252.259a23.693,23.693,0,1,1,24.1-23.688,23.9,23.9,0,0,1-24.1,23.688" transform="translate(-100.82 -200.893)" fill="#e73515"/><path d="M127.387,252.484a23.693,23.693,0,1,1,24.1-23.688,23.9,23.9,0,0,1-24.1,23.688" transform="translate(-100.202 -201.051)" fill="#e73415"/><path d="M126.53,252.753a23.693,23.693,0,1,1,24.1-23.688,23.9,23.9,0,0,1-24.1,23.688" transform="translate(-99.604 -201.24)" fill="#e63116"/><path d="M125.705,253.07a23.693,23.693,0,1,1,24.1-23.688,23.9,23.9,0,0,1-24.1,23.688" transform="translate(-99.028 -201.463)" fill="#e62f16"/><path d="M124.915,253.435a23.693,23.693,0,1,1,24.1-23.688,23.9,23.9,0,0,1-24.1,23.688" transform="translate(-98.476 -201.72)" fill="#e62e17"/><path d="M124.16,253.851a23.693,23.693,0,1,1,24.1-23.688,23.9,23.9,0,0,1-24.1,23.688" transform="translate(-97.949 -202.013)" fill="#e62c17"/><path d="M123.445,254.32a23.693,23.693,0,1,1,24.1-23.688,23.9,23.9,0,0,1-24.1,23.688" transform="translate(-97.45 -202.342)" fill="#e62a17"/><path d="M122.732,254.872a23.693,23.693,0,1,1,24.1-23.688,23.9,23.9,0,0,1-24.1,23.688" transform="translate(-96.952 -202.731)" fill="#e62917"/><path d="M122.06,255.48a23.693,23.693,0,1,1,24.1-23.688,23.9,23.9,0,0,1-24.1,23.688" transform="translate(-96.483 -203.158)" fill="#e62917"/><path d="M121.432,256.138a23.693,23.693,0,1,1,24.1-23.688,23.9,23.9,0,0,1-24.1,23.688" transform="translate(-96.045 -203.621)" fill="#e62717"/><path d="M120.845,256.842a23.693,23.693,0,1,1,24.1-23.688,23.9,23.9,0,0,1-24.1,23.688" transform="translate(-95.635 -204.116)" fill="#e62517"/><path d="M120.3,257.591A23.693,23.693,0,1,1,144.4,233.9a23.9,23.9,0,0,1-24.1,23.688" transform="translate(-95.257 -204.643)" fill="#e62317"/><path d="M119.8,258.377a23.693,23.693,0,1,1,24.1-23.687,23.9,23.9,0,0,1-24.1,23.687" transform="translate(-94.908 -205.196)" fill="#e62117"/><path d="M119.346,259.2a23.693,23.693,0,1,1,24.1-23.688,23.9,23.9,0,0,1-24.1,23.688" transform="translate(-94.589 -205.775)" fill="#e51c17"/><path d="M118.932,260.056a23.693,23.693,0,1,1,24.1-23.687,23.9,23.9,0,0,1-24.1,23.687" transform="translate(-94.3 -206.376)" fill="#e51a18"/><path d="M118.563,260.941a23.693,23.693,0,1,1,24.1-23.687,23.9,23.9,0,0,1-24.1,23.687" transform="translate(-94.042 -206.999)" fill="#e51718"/><path d="M118.237,261.851a23.693,23.693,0,1,1,24.1-23.687,23.9,23.9,0,0,1-24.1,23.687" transform="translate(-93.814 -207.639)" fill="#e51418"/><path d="M117.954,262.782a23.693,23.693,0,1,1,24.1-23.687,23.9,23.9,0,0,1-24.1,23.687" transform="translate(-93.617 -208.293)" fill="#e51118"/><path d="M117.716,263.729a23.693,23.693,0,1,1,24.1-23.687,23.9,23.9,0,0,1-24.1,23.687" transform="translate(-93.451 -208.96)" fill="#e51118"/><path d="M117.521,264.692A23.693,23.693,0,1,1,141.62,241a23.9,23.9,0,0,1-24.1,23.688" transform="translate(-93.315 -209.637)" fill="#e50e18"/><path d="M117.37,265.666a23.693,23.693,0,1,1,24.1-23.687,23.9,23.9,0,0,1-24.1,23.687" transform="translate(-93.209 -210.322)" fill="#e50a19"/><path d="M117.264,266.646a23.693,23.693,0,1,1,24.1-23.687,23.9,23.9,0,0,1-24.1,23.687" transform="translate(-93.135 -211.011)" fill="#e50619"/><path d="M117.2,267.629a23.693,23.693,0,1,1,24.1-23.687,23.9,23.9,0,0,1-24.1,23.687" transform="translate(-93.091 -211.702)" fill="#e50219"/><path d="M117.182,268.611a23.693,23.693,0,1,1,24.1-23.687,23.9,23.9,0,0,1-24.1,23.687" transform="translate(-93.078 -212.393)" fill="#e50019"/><path d="M117.194,269.183a23.693,23.693,0,1,1,24.1-23.687,23.9,23.9,0,0,1-24.1,23.687" transform="translate(-93.086 -212.795)" fill="#e50019"/><path d="M117.219,269.756a23.693,23.693,0,1,1,24.1-23.687,23.9,23.9,0,0,1-24.1,23.687" transform="translate(-93.104 -213.198)" fill="#e4001a"/><path d="M117.259,270.328a23.693,23.693,0,1,1,24.1-23.687,23.9,23.9,0,0,1-24.1,23.687" transform="translate(-93.132 -213.6)" fill="#e4001b"/><path d="M117.314,270.9a23.693,23.693,0,1,1,24.1-23.687,23.9,23.9,0,0,1-24.1,23.687" transform="translate(-93.17 -214.001)" fill="#e4001c"/><path d="M117.384,271.467a23.693,23.693,0,1,1,24.1-23.687,23.9,23.9,0,0,1-24.1,23.687" transform="translate(-93.219 -214.402)" fill="#e3001c"/><path d="M117.468,272.035a23.693,23.693,0,1,1,24.1-23.687,23.9,23.9,0,0,1-24.1,23.687" transform="translate(-93.278 -214.801)" fill="#e3011d"/><path d="M117.568,272.6a23.693,23.693,0,1,1,24.1-23.687,23.9,23.9,0,0,1-24.1,23.687" transform="translate(-93.347 -215.197)" fill="#e3001e"/><path d="M117.683,273.158a23.693,23.693,0,1,1,24.1-23.687,23.9,23.9,0,0,1-24.1,23.687" transform="translate(-93.428 -215.591)" fill="#e2011e"/><path d="M117.813,273.713a23.693,23.693,0,1,1,24.1-23.687,23.9,23.9,0,0,1-24.1,23.687" transform="translate(-93.518 -215.981)" fill="#e1051f"/><path d="M117.957,274.263a23.693,23.693,0,1,1,24.1-23.687,23.9,23.9,0,0,1-24.1,23.687" transform="translate(-93.619 -216.368)" fill="#e10620"/><path d="M118.116,274.807a23.693,23.693,0,1,1,24.1-23.687,23.9,23.9,0,0,1-24.1,23.687" transform="translate(-93.73 -216.75)" fill="#e00720"/><path d="M118.29,275.344a23.693,23.693,0,1,1,24.1-23.687,23.9,23.9,0,0,1-24.1,23.687" transform="translate(-93.851 -217.128)" fill="#e00721"/><path d="M118.479,275.874a23.693,23.693,0,1,1,24.1-23.687,23.9,23.9,0,0,1-24.1,23.687" transform="translate(-93.983 -217.501)" fill="#df0822"/><path d="M118.683,276.4a23.693,23.693,0,1,1,24.1-23.687,23.9,23.9,0,0,1-24.1,23.687" transform="translate(-94.126 -217.868)" fill="#df0822"/><path d="M118.9,276.908A23.693,23.693,0,1,1,143,253.22a23.9,23.9,0,0,1-24.1,23.687" transform="translate(-94.279 -218.228)" fill="#df0823"/><path d="M119.135,277.411a23.693,23.693,0,1,1,24.1-23.688,23.9,23.9,0,0,1-24.1,23.688" transform="translate(-94.441 -218.582)" fill="#de0924"/><path d="M119.382,277.9a23.693,23.693,0,1,1,24.1-23.688,23.9,23.9,0,0,1-24.1,23.688" transform="translate(-94.614 -218.928)" fill="#dd0924"/><path d="M119.645,278.385a23.693,23.693,0,1,1,24.1-23.688,23.9,23.9,0,0,1-24.1,23.688" transform="translate(-94.797 -219.267)" fill="#dd0a25"/><path d="M119.922,278.855a23.693,23.693,0,1,1,24.1-23.688,23.9,23.9,0,0,1-24.1,23.688" transform="translate(-94.991 -219.597)" fill="#dc0e25"/><path d="M120.214,279.313a23.693,23.693,0,1,1,24.1-23.688,23.9,23.9,0,0,1-24.1,23.688" transform="translate(-95.195 -219.919)" fill="#dc0d26"/><path d="M120.52,279.757a23.693,23.693,0,1,1,24.1-23.688,23.9,23.9,0,0,1-24.1,23.688" transform="translate(-95.408 -220.231)" fill="#dc0e26"/><path d="M120.842,280.187a23.693,23.693,0,1,1,24.1-23.687,23.9,23.9,0,0,1-24.1,23.687" transform="translate(-95.633 -220.534)" fill="#db0e27"/><path d="M121.178,280.6a23.693,23.693,0,1,1,24.1-23.687,23.9,23.9,0,0,1-24.1,23.687" transform="translate(-95.868 -220.826)" fill="#db0f28"/><path d="M121.527,281a23.693,23.693,0,1,1,24.1-23.688A23.9,23.9,0,0,1,121.527,281" transform="translate(-96.111 -221.108)" fill="#da0f28"/><path d="M121.892,281.388a23.693,23.693,0,1,1,24.1-23.688,23.9,23.9,0,0,1-24.1,23.688" transform="translate(-96.366 -221.378)" fill="#d90f29"/><path d="M122.271,281.756a23.693,23.693,0,1,1,24.1-23.688,23.9,23.9,0,0,1-24.1,23.688" transform="translate(-96.631 -221.637)" fill="#d90f29"/><path d="M122.665,282.106a23.693,23.693,0,1,1,24.1-23.688,23.9,23.9,0,0,1-24.1,23.688" transform="translate(-96.906 -221.883)" fill="#d90f2a"/><path d="M123.073,282.438a23.693,23.693,0,1,1,24.1-23.688,23.9,23.9,0,0,1-24.1,23.688" transform="translate(-97.191 -222.117)" fill="#d8122b"/><path d="M123.491,282.748a23.693,23.693,0,1,1,24.1-23.688,23.9,23.9,0,0,1-24.1,23.688" transform="translate(-97.482 -222.335)" fill="#d8132b"/><path d="M123.9,283.025A23.693,23.693,0,1,1,148,259.337a23.9,23.9,0,0,1-24.1,23.688" transform="translate(-97.771 -222.53)" fill="#d7132c"/><path d="M124.33,283.284a23.693,23.693,0,1,1,24.1-23.688,23.9,23.9,0,0,1-24.1,23.688" transform="translate(-98.068 -222.712)" fill="#d7132d"/><path d="M124.769,283.525a23.693,23.693,0,1,1,24.1-23.688,23.9,23.9,0,0,1-24.1,23.688" transform="translate(-98.375 -222.881)" fill="#d6132d"/><path d="M125.222,283.749a23.693,23.693,0,1,1,24.1-23.688,23.9,23.9,0,0,1-24.1,23.688" transform="translate(-98.691 -223.039)" fill="#d6132e"/><path d="M125.686,283.956a23.693,23.693,0,1,1,24.1-23.688,23.9,23.9,0,0,1-24.1,23.688" transform="translate(-99.015 -223.184)" fill="#d5132e"/><path d="M126.161,284.146a23.693,23.693,0,1,1,24.1-23.688,23.9,23.9,0,0,1-24.1,23.688" transform="translate(-99.346 -223.318)" fill="#d5142e"/><path d="M126.647,284.32a23.694,23.694,0,1,1,24.1-23.688,23.9,23.9,0,0,1-24.1,23.688" transform="translate(-99.686 -223.44)" fill="#d4142f"/><path d="M127.145,284.479a23.693,23.693,0,1,1,24.1-23.688,23.9,23.9,0,0,1-24.1,23.688" transform="translate(-100.033 -223.552)" fill="#d4142f"/><path d="M127.651,284.623a23.693,23.693,0,1,1,24.1-23.688,23.9,23.9,0,0,1-24.1,23.688" transform="translate(-100.386 -223.654)" fill="#d31730"/><path d="M128.168,284.751a23.693,23.693,0,1,1,24.1-23.688,23.9,23.9,0,0,1-24.1,23.688" transform="translate(-100.747 -223.744)" fill="#d21731"/><path d="M128.694,284.865a23.693,23.693,0,1,1,24.1-23.688,23.9,23.9,0,0,1-24.1,23.688" transform="translate(-101.115 -223.824)" fill="#d21731"/><path d="M129.228,284.965a23.693,23.693,0,1,1,24.1-23.688,23.9,23.9,0,0,1-24.1,23.688" transform="translate(-101.487 -223.894)" fill="#d21732"/><path d="M129.769,285.05a23.694,23.694,0,1,1,24.1-23.688,23.9,23.9,0,0,1-24.1,23.688" transform="translate(-101.865 -223.954)" fill="#d11733"/><path d="M130.318,285.123a23.693,23.693,0,1,1,24.1-23.688,23.9,23.9,0,0,1-24.1,23.688" transform="translate(-102.248 -224.005)" fill="#d11733"/><path d="M130.874,285.183a23.693,23.693,0,1,1,24.1-23.688,23.9,23.9,0,0,1-24.1,23.688" transform="translate(-102.636 -224.047)" fill="#d01734"/><path d="M131.436,285.23a23.693,23.693,0,1,1,24.1-23.688,23.9,23.9,0,0,1-24.1,23.688" transform="translate(-103.029 -224.08)" fill="#cf1834"/><path d="M132,285.264a23.694,23.694,0,1,1,24.1-23.688A23.9,23.9,0,0,1,132,285.264" transform="translate(-103.425 -224.104)" fill="#cf1834"/><path d="M132.577,285.287a23.694,23.694,0,1,1,24.1-23.688,23.9,23.9,0,0,1-24.1,23.688" transform="translate(-103.825 -224.12)" fill="#cf1835"/><path d="M133.154,285.3a23.693,23.693,0,1,1,24.1-23.688,23.9,23.9,0,0,1-24.1,23.688" transform="translate(-104.228 -224.13)" fill="#ce1a35"/><path d="M133.737,285.3a23.694,23.694,0,1,1,24.1-23.688,23.9,23.9,0,0,1-24.1,23.688" transform="translate(-104.635 -224.13)" fill="#ce1a36"/><path d="M134.323,285.29a23.694,23.694,0,1,1,24.1-23.688,23.9,23.9,0,0,1-24.1,23.688" transform="translate(-105.044 -224.123)" fill="#cd1a36"/><path d="M134.911,285.27a23.694,23.694,0,1,1,24.1-23.689,23.9,23.9,0,0,1-24.1,23.689" transform="translate(-105.455 -224.109)" fill="#cc1b37"/><path d="M135.5,285.24a23.694,23.694,0,1,1,24.1-23.688,23.9,23.9,0,0,1-24.1,23.688" transform="translate(-105.867 -224.088)" fill="#cc1b38"/><path d="M136.1,285.2a23.694,23.694,0,1,1,24.1-23.688A23.9,23.9,0,0,1,136.1,285.2" transform="translate(-106.282 -224.06)" fill="#cc1b38"/><path d="M136.69,285.153a23.694,23.694,0,1,1,24.1-23.689,23.9,23.9,0,0,1-24.1,23.689" transform="translate(-106.697 -224.026)" fill="#cb1b39"/><path d="M137.286,285.1a23.694,23.694,0,1,1,24.1-23.689,23.9,23.9,0,0,1-24.1,23.689" transform="translate(-107.113 -223.986)" fill="#ca1b39"/><path d="M137.883,285.031a23.694,23.694,0,1,1,24.1-23.689,23.9,23.9,0,0,1-24.1,23.689" transform="translate(-107.53 -223.94)" fill="#ca1b3a"/><path d="M138.48,284.958a23.693,23.693,0,1,1,24.1-23.688,23.9,23.9,0,0,1-24.1,23.688" transform="translate(-107.946 -223.889)" fill="#c91d3a"/><path d="M139.075,284.878a23.694,23.694,0,1,1,24.1-23.689,23.9,23.9,0,0,1-24.1,23.689" transform="translate(-108.362 -223.833)" fill="#c91d3b"/><path d="M139.67,284.79a23.694,23.694,0,1,1,24.1-23.688,23.9,23.9,0,0,1-24.1,23.688" transform="translate(-108.777 -223.771)" fill="#c91d3b"/><path d="M140.264,284.7a23.694,23.694,0,1,1,24.1-23.688,23.9,23.9,0,0,1-24.1,23.688" transform="translate(-109.192 -223.705)" fill="#c81d3c"/><path d="M140.854,284.6a23.694,23.694,0,1,1,24.1-23.689,23.9,23.9,0,0,1-24.1,23.689" transform="translate(-109.604 -223.635)" fill="#c71d3c"/><path d="M141.443,284.49a23.694,23.694,0,1,1,24.1-23.689,23.9,23.9,0,0,1-24.1,23.689" transform="translate(-110.015 -223.56)" fill="#c71d3d"/><path d="M142.029,284.379a23.694,23.694,0,1,1,24.1-23.689,23.9,23.9,0,0,1-24.1,23.689" transform="translate(-110.424 -223.482)" fill="#c61d3d"/><path d="M142.61,284.262a23.694,23.694,0,1,1,24.1-23.689,23.9,23.9,0,0,1-24.1,23.689" transform="translate(-110.83 -223.4)" fill="#c51e3e"/><path d="M143.187,284.141a23.694,23.694,0,1,1,24.1-23.689,23.9,23.9,0,0,1-24.1,23.689" transform="translate(-111.232 -223.315)" fill="#c51e3e"/><path d="M143.76,284.015a23.693,23.693,0,1,1,24.1-23.688,23.9,23.9,0,0,1-24.1,23.688" transform="translate(-111.632 -223.226)" fill="#c51e3f"/><path d="M144.327,283.886a23.694,23.694,0,1,1,24.1-23.689,23.9,23.9,0,0,1-24.1,23.689" transform="translate(-112.028 -223.135)" fill="#c41f3f"/><path d="M144.889,283.753a23.694,23.694,0,1,1,24.1-23.689,23.9,23.9,0,0,1-24.1,23.689" transform="translate(-112.421 -223.042)" fill="#c42040"/><path d="M145.444,283.617a23.694,23.694,0,1,1,24.1-23.689,23.9,23.9,0,0,1-24.1,23.689" transform="translate(-112.808 -222.946)" fill="#c32040"/><path d="M145.993,283.478a23.694,23.694,0,1,1,24.1-23.689,23.9,23.9,0,0,1-24.1,23.689" transform="translate(-113.191 -222.848)" fill="#c22041"/><path d="M146.532,283.337a23.694,23.694,0,1,1,24.1-23.689,23.9,23.9,0,0,1-24.1,23.689" transform="translate(-113.568 -222.749)" fill="#c22041"/><path d="M147.066,283.194a23.694,23.694,0,1,1,24.1-23.689,23.9,23.9,0,0,1-24.1,23.689" transform="translate(-113.941 -222.649)" fill="#c22042"/><path d="M147.591,283.05a23.694,23.694,0,1,1,24.1-23.689,23.9,23.9,0,0,1-24.1,23.689" transform="translate(-114.307 -222.547)" fill="#c12042"/><path d="M148.107,282.905a23.694,23.694,0,1,1,24.1-23.689,23.9,23.9,0,0,1-24.1,23.689" transform="translate(-114.667 -222.445)" fill="#c02043"/><path d="M148.613,282.758a23.694,23.694,0,1,1,24.1-23.689,23.9,23.9,0,0,1-24.1,23.689" transform="translate(-115.02 -222.342)" fill="#c02043"/><path d="M149.109,282.612a23.694,23.694,0,1,1,24.1-23.689,23.9,23.9,0,0,1-24.1,23.689" transform="translate(-115.367 -222.239)" fill="#bf2044"/><path d="M149.595,282.464a23.694,23.694,0,1,1,24.1-23.689,23.9,23.9,0,0,1-24.1,23.689" transform="translate(-115.706 -222.135)" fill="#be2245"/><path d="M150.07,282.318a23.694,23.694,0,1,1,24.1-23.689,23.9,23.9,0,0,1-24.1,23.689" transform="translate(-116.037 -222.032)" fill="#be2245"/><path d="M150.532,282.173a23.694,23.694,0,1,1,24.1-23.689,23.9,23.9,0,0,1-24.1,23.689" transform="translate(-116.36 -221.931)" fill="#be2246"/><path d="M150.984,282.03a23.694,23.694,0,1,1,24.1-23.689,23.9,23.9,0,0,1-24.1,23.689" transform="translate(-116.676 -221.83)" fill="#bd2246"/><path d="M151.425,281.886a23.694,23.694,0,1,1,24.1-23.689,23.9,23.9,0,0,1-24.1,23.689" transform="translate(-116.983 -221.729)" fill="#bd2247"/><path d="M151.927,281.72a23.694,23.694,0,1,1,24.1-23.689,23.9,23.9,0,0,1-24.1,23.689" transform="translate(-117.334 -221.612)" fill="#bc2247"/><path d="M152.43,281.553a23.694,23.694,0,1,1,24.1-23.689,23.9,23.9,0,0,1-24.1,23.689" transform="translate(-117.685 -221.495)" fill="#bb2248"/><path d="M152.932,281.384a23.694,23.694,0,1,1,24.1-23.689,23.9,23.9,0,0,1-24.1,23.689" transform="translate(-118.035 -221.376)" fill="#bb2248"/><path d="M153.434,281.214a23.694,23.694,0,1,1,24.1-23.689,23.9,23.9,0,0,1-24.1,23.689" transform="translate(-118.386 -221.256)" fill="#bb2248"/><path d="M153.935,281.041a23.694,23.694,0,1,1,24.1-23.689,23.9,23.9,0,0,1-24.1,23.689" transform="translate(-118.736 -221.134)" fill="#ba2449"/><path d="M154.437,280.866a23.694,23.694,0,1,1,24.1-23.689,23.9,23.9,0,0,1-24.1,23.689" transform="translate(-119.086 -221.011)" fill="#b9244a"/><path d="M154.938,280.689A23.694,23.694,0,1,1,179.037,257a23.9,23.9,0,0,1-24.1,23.689" transform="translate(-119.436 -220.887)" fill="#b9244a"/><path d="M155.44,280.511a23.694,23.694,0,1,1,24.1-23.689,23.9,23.9,0,0,1-24.1,23.689" transform="translate(-119.786 -220.762)" fill="#b8244b"/><path d="M155.94,280.332a23.694,23.694,0,1,1,24.1-23.689,23.9,23.9,0,0,1-24.1,23.689" transform="translate(-120.135 -220.636)" fill="#b7244b"/><path d="M156.441,280.15a23.694,23.694,0,1,1,24.1-23.689,23.9,23.9,0,0,1-24.1,23.689" transform="translate(-120.485 -220.508)" fill="#b7244c"/><path d="M156.941,279.967a23.694,23.694,0,1,1,24.1-23.689,23.9,23.9,0,0,1-24.1,23.689" transform="translate(-120.835 -220.379)" fill="#b7244c"/><path d="M157.442,279.782a23.694,23.694,0,1,1,24.1-23.689,23.9,23.9,0,0,1-24.1,23.689" transform="translate(-121.184 -220.249)" fill="#b6244d"/><path d="M157.942,279.6a23.694,23.694,0,1,1,24.1-23.689,23.9,23.9,0,0,1-24.1,23.689" transform="translate(-121.533 -220.117)" fill="#b5244d"/><path d="M158.442,279.407a23.694,23.694,0,1,1,24.1-23.689,23.9,23.9,0,0,1-24.1,23.689" transform="translate(-121.882 -219.985)" fill="#b5244e"/><path d="M158.941,279.217a23.694,23.694,0,1,1,24.1-23.689,23.9,23.9,0,0,1-24.1,23.689" transform="translate(-122.23 -219.852)" fill="#b4264e"/><path d="M159.441,279.025a23.694,23.694,0,1,1,24.1-23.689,23.9,23.9,0,0,1-24.1,23.689" transform="translate(-122.579 -219.717)" fill="#b3264f"/><path d="M159.94,278.832a23.694,23.694,0,1,1,24.1-23.689,23.9,23.9,0,0,1-24.1,23.689" transform="translate(-122.929 -219.581)" fill="#b3264f"/><path d="M160.439,278.637a23.694,23.694,0,1,1,24.1-23.69,23.9,23.9,0,0,1-24.1,23.69" transform="translate(-123.277 -219.444)" fill="#b32650"/><path d="M160.938,278.44a23.694,23.694,0,1,1,24.1-23.689,23.9,23.9,0,0,1-24.1,23.689" transform="translate(-123.625 -219.305)" fill="#b22650"/><path d="M161.437,278.242a23.694,23.694,0,1,1,24.1-23.689,23.9,23.9,0,0,1-24.1,23.689" transform="translate(-123.973 -219.166)" fill="#b12651"/><path d="M161.935,278.042a23.694,23.694,0,1,1,24.1-23.689,23.9,23.9,0,0,1-24.1,23.689" transform="translate(-124.321 -219.025)" fill="#b12651"/><path d="M162.434,277.841a23.694,23.694,0,1,1,24.1-23.689,23.9,23.9,0,0,1-24.1,23.689" transform="translate(-124.669 -218.884)" fill="#b02752"/><path d="M162.932,277.638a23.694,23.694,0,1,1,24.1-23.69,23.9,23.9,0,0,1-24.1,23.69" transform="translate(-125.017 -218.741)" fill="#af2752"/><path d="M163.43,277.433a23.694,23.694,0,1,1,24.1-23.69,23.9,23.9,0,0,1-24.1,23.69" transform="translate(-125.364 -218.597)" fill="#af2753"/><path d="M163.927,277.227a23.694,23.694,0,1,1,24.1-23.689,23.9,23.9,0,0,1-24.1,23.689" transform="translate(-125.712 -218.452)" fill="#af2753"/><path d="M164.424,277.02a23.694,23.694,0,1,1,24.1-23.689,23.9,23.9,0,0,1-24.1,23.689" transform="translate(-126.058 -218.306)" fill="#ae2754"/><path d="M164.922,276.81a23.694,23.694,0,1,1,24.1-23.69,23.9,23.9,0,0,1-24.1,23.69" transform="translate(-126.406 -218.159)" fill="#ad2754"/><path d="M165.419,276.6a23.694,23.694,0,1,1,24.1-23.69,23.9,23.9,0,0,1-24.1,23.69" transform="translate(-126.753 -218.011)" fill="#ad2755"/><path d="M165.916,276.386a23.694,23.694,0,1,1,24.1-23.689,23.9,23.9,0,0,1-24.1,23.689" transform="translate(-127.1 -217.861)" fill="#ac2755"/><path d="M166.412,276.172a23.694,23.694,0,1,1,24.1-23.69,23.9,23.9,0,0,1-24.1,23.69" transform="translate(-127.446 -217.71)" fill="#ac2755"/><path d="M166.908,275.957a23.694,23.694,0,1,1,24.1-23.69,23.9,23.9,0,0,1-24.1,23.69" transform="translate(-127.793 -217.559)" fill="#ab2756"/><path d="M167.4,275.74a23.694,23.694,0,1,1,24.1-23.69,23.9,23.9,0,0,1-24.1,23.69" transform="translate(-128.139 -217.406)" fill="#ab2957"/><path d="M167.9,275.521A23.694,23.694,0,1,1,192,251.832a23.9,23.9,0,0,1-24.1,23.689" transform="translate(-128.485 -217.252)" fill="#aa2957"/><path d="M168.4,275.3a23.694,23.694,0,1,1,24.1-23.689A23.9,23.9,0,0,1,168.4,275.3" transform="translate(-128.831 -217.098)" fill="#a92958"/><path d="M168.891,275.08a23.694,23.694,0,1,1,24.1-23.69,23.9,23.9,0,0,1-24.1,23.69" transform="translate(-129.177 -216.942)" fill="#a82958"/><path d="M169.386,274.857a23.694,23.694,0,1,1,24.1-23.69,23.9,23.9,0,0,1-24.1,23.69" transform="translate(-129.522 -216.785)" fill="#a82959"/><path d="M169.881,274.633a24.687,24.687,0,0,1-10.94-2.575,23.531,23.531,0,0,1-13.164-21.115,24.105,24.105,0,1,1,24.1,23.69" transform="translate(-129.868 -216.627)" fill="#a82959"/><path d="M170.376,274.407a23.694,23.694,0,1,1,24.1-23.69,23.9,23.9,0,0,1-24.1,23.69" transform="translate(-130.213 -216.468)" fill="#a7295a"/><path d="M170.871,274.179a23.694,23.694,0,1,1,24.1-23.69,23.9,23.9,0,0,1-24.1,23.69" transform="translate(-130.559 -216.308)" fill="#a6295a"/><path d="M171.364,273.951a23.694,23.694,0,1,1,24.1-23.69,23.9,23.9,0,0,1-24.1,23.69" transform="translate(-130.904 -216.148)" fill="#a6295a"/><path d="M171.859,273.72a23.694,23.694,0,1,1,24.1-23.69,23.9,23.9,0,0,1-24.1,23.69" transform="translate(-131.249 -215.986)" fill="#a5295b"/><path d="M172.353,273.489a23.694,23.694,0,1,1,24.1-23.69,23.9,23.9,0,0,1-24.1,23.69" transform="translate(-131.594 -215.823)" fill="#a42a5c"/><path d="M172.846,273.256a23.694,23.694,0,1,1,24.1-23.69,23.9,23.9,0,0,1-24.1,23.69" transform="translate(-131.938 -215.66)" fill="#a42a5c"/><path d="M173.339,273.022a23.694,23.694,0,1,1,24.1-23.69,23.9,23.9,0,0,1-24.1,23.69" transform="translate(-132.283 -215.494)" fill="#a32a5d"/><path d="M173.832,272.786a23.694,23.694,0,1,1,24.1-23.69,23.9,23.9,0,0,1-24.1,23.69" transform="translate(-132.627 -215.328)" fill="#a32a5d"/><path d="M174.325,272.549a23.694,23.694,0,1,1,24.1-23.69,23.9,23.9,0,0,1-24.1,23.69" transform="translate(-132.971 -215.162)" fill="#a22a5d"/><path d="M174.818,272.311a23.694,23.694,0,1,1,24.1-23.69,23.9,23.9,0,0,1-24.1,23.69" transform="translate(-133.314 -214.994)" fill="#a12a5e"/><path d="M175.31,272.071a23.694,23.694,0,1,1,24.1-23.69,23.9,23.9,0,0,1-24.1,23.69" transform="translate(-133.658 -214.825)" fill="#a12a5e"/><path d="M175.8,271.83a23.694,23.694,0,1,1,24.1-23.69,23.9,23.9,0,0,1-24.1,23.69" transform="translate(-134.001 -214.656)" fill="#a02a5f"/><path d="M176.294,271.588a23.694,23.694,0,1,1,24.1-23.69,23.9,23.9,0,0,1-24.1,23.69" transform="translate(-134.345 -214.486)" fill="#a02a5f"/><path d="M176.785,271.344a23.694,23.694,0,1,1,24.1-23.69,23.9,23.9,0,0,1-24.1,23.69" transform="translate(-134.688 -214.314)" fill="#9f2b60"/><path d="M177.277,271.1a23.694,23.694,0,1,1,24.1-23.69,23.9,23.9,0,0,1-24.1,23.69" transform="translate(-135.032 -214.142)" fill="#9e2b60"/><path d="M177.768,270.852a23.694,23.694,0,1,1,24.1-23.69,23.9,23.9,0,0,1-24.1,23.69" transform="translate(-135.374 -213.968)" fill="#9e2b61"/><path d="M178.259,270.6a23.694,23.694,0,1,1,24.1-23.69,23.9,23.9,0,0,1-24.1,23.69" transform="translate(-135.717 -213.794)" fill="#9d2b61"/><path d="M178.75,270.356a23.694,23.694,0,1,1,24.1-23.69,23.9,23.9,0,0,1-24.1,23.69" transform="translate(-136.06 -213.619)" fill="#9c2b62"/><path d="M179.24,270.106a23.694,23.694,0,1,1,24.1-23.69,23.9,23.9,0,0,1-24.1,23.69" transform="translate(-136.402 -213.444)" fill="#9c2b62"/><path d="M179.73,269.854a23.694,23.694,0,1,1,24.1-23.69,23.9,23.9,0,0,1-24.1,23.69" transform="translate(-136.744 -213.267)" fill="#9b2b63"/><path d="M180.22,269.6a23.694,23.694,0,1,1,24.1-23.69,23.9,23.9,0,0,1-24.1,23.69" transform="translate(-137.086 -213.088)" fill="#9b2b63"/><path d="M180.71,269.348a23.694,23.694,0,1,1,24.1-23.69,23.9,23.9,0,0,1-24.1,23.69" transform="translate(-137.428 -212.91)" fill="#9a2b64"/><path d="M181.2,269.093a23.694,23.694,0,1,1,24.1-23.69,23.9,23.9,0,0,1-24.1,23.69" transform="translate(-137.77 -212.731)" fill="#992b64"/><path d="M181.688,268.836a23.694,23.694,0,1,1,24.1-23.69,23.9,23.9,0,0,1-24.1,23.69" transform="translate(-138.111 -212.55)" fill="#982c65"/><path d="M182.177,268.579a23.694,23.694,0,1,1,24.1-23.691,23.9,23.9,0,0,1-24.1,23.691" transform="translate(-138.452 -212.37)" fill="#982c65"/><path d="M182.666,268.32a23.694,23.694,0,1,1,24.1-23.69,23.9,23.9,0,0,1-24.1,23.69" transform="translate(-138.794 -212.188)" fill="#982c66"/><path d="M183.154,268.06a23.694,23.694,0,1,1,24.1-23.69,23.9,23.9,0,0,1-24.1,23.69" transform="translate(-139.134 -212.005)" fill="#972c66"/><path d="M183.642,267.8a23.694,23.694,0,1,1,24.1-23.69,23.9,23.9,0,0,1-24.1,23.69" transform="translate(-139.475 -211.821)" fill="#962c67"/><path d="M184.13,267.537a23.694,23.694,0,1,1,24.1-23.691,23.9,23.9,0,0,1-24.1,23.691" transform="translate(-139.816 -211.637)" fill="#952c67"/><path d="M184.617,267.274a23.694,23.694,0,1,1,24.1-23.691,23.9,23.9,0,0,1-24.1,23.691" transform="translate(-140.156 -211.452)" fill="#952c68"/><path d="M185.105,267.009a23.694,23.694,0,1,1,24.1-23.69,23.9,23.9,0,0,1-24.1,23.69" transform="translate(-140.496 -211.266)" fill="#942c68"/><path d="M185.592,266.744a23.694,23.694,0,1,1,24.1-23.691,23.9,23.9,0,0,1-24.1,23.691" transform="translate(-140.836 -211.079)" fill="#942c68"/><path d="M186.079,266.477a23.694,23.694,0,1,1,24.1-23.691,23.9,23.9,0,0,1-24.1,23.691" transform="translate(-141.176 -210.891)" fill="#932c69"/><path d="M186.565,266.209a23.694,23.694,0,1,1,24.1-23.691,23.9,23.9,0,0,1-24.1,23.691" transform="translate(-141.516 -210.703)" fill="#922d6a"/><path d="M187.052,265.94a23.694,23.694,0,1,1,24.1-23.691,23.9,23.9,0,0,1-24.1,23.691" transform="translate(-141.856 -210.514)" fill="#922d6a"/><path d="M187.538,265.669a23.694,23.694,0,1,1,24.1-23.691,23.9,23.9,0,0,1-24.1,23.691" transform="translate(-142.195 -210.323)" fill="#912d6b"/><path d="M188.024,265.4a23.694,23.694,0,1,1,24.1-23.691,23.9,23.9,0,0,1-24.1,23.691" transform="translate(-142.534 -210.133)" fill="#902d6b"/><path d="M188.509,265.126a23.694,23.694,0,1,1,24.1-23.691,23.9,23.9,0,0,1-24.1,23.691" transform="translate(-142.872 -209.941)" fill="#8f2d6b"/><path d="M188.994,264.852a23.694,23.694,0,1,1,24.1-23.691,23.9,23.9,0,0,1-24.1,23.691" transform="translate(-143.211 -209.749)" fill="#8f2d6c"/><path d="M189.479,264.578a23.694,23.694,0,1,1,24.1-23.691,23.9,23.9,0,0,1-24.1,23.691" transform="translate(-143.549 -209.556)" fill="#8e2d6c"/><path d="M189.964,264.3a23.694,23.694,0,1,1,24.1-23.691,23.9,23.9,0,0,1-24.1,23.691" transform="translate(-143.888 -209.362)" fill="#8e2d6d"/><path d="M190.448,264.026a23.694,23.694,0,1,1,24.1-23.691,23.9,23.9,0,0,1-24.1,23.691" transform="translate(-144.226 -209.168)" fill="#8d2d6d"/><path d="M190.932,263.749a23.694,23.694,0,1,1,24.1-23.691,23.9,23.9,0,0,1-24.1,23.691" transform="translate(-144.564 -208.973)" fill="#8c2e6e"/><path d="M191.416,263.47a23.694,23.694,0,1,1,24.1-23.691,23.9,23.9,0,0,1-24.1,23.691" transform="translate(-144.902 -208.777)" fill="#8b2e6e"/><path d="M191.9,263.191A23.694,23.694,0,1,1,216,239.5a23.9,23.9,0,0,1-24.1,23.691" transform="translate(-145.24 -208.58)" fill="#8b2e6f"/><path d="M192.383,262.911a23.694,23.694,0,1,1,24.1-23.691,23.9,23.9,0,0,1-24.1,23.691" transform="translate(-145.577 -208.384)" fill="#8a2e6f"/><path d="M192.866,262.629a23.694,23.694,0,1,1,24.1-23.691,23.9,23.9,0,0,1-24.1,23.691" transform="translate(-145.915 -208.185)" fill="#8a2e70"/><path d="M193.348,262.347a23.694,23.694,0,1,1,24.1-23.691,23.9,23.9,0,0,1-24.1,23.691" transform="translate(-146.251 -207.987)" fill="#892e70"/><path d="M193.831,262.063a23.694,23.694,0,1,1,24.1-23.691,23.9,23.9,0,0,1-24.1,23.691" transform="translate(-146.588 -207.787)" fill="#882e70"/><path d="M194.313,261.779a23.694,23.694,0,1,1,24.1-23.691,23.9,23.9,0,0,1-24.1,23.691" transform="translate(-146.925 -207.587)" fill="#872e71"/><path d="M194.8,261.494A23.694,23.694,0,1,1,218.9,237.8a23.9,23.9,0,0,1-24.1,23.691" transform="translate(-147.261 -207.387)" fill="#872e71"/><path d="M195.276,261.208a23.694,23.694,0,1,1,24.1-23.691,23.9,23.9,0,0,1-24.1,23.691" transform="translate(-147.597 -207.186)" fill="#872e72"/><path d="M195.757,260.921a23.694,23.694,0,1,1,24.1-23.691,23.9,23.9,0,0,1-24.1,23.691" transform="translate(-147.933 -206.984)" fill="#862f72"/><path d="M196.239,260.633a23.694,23.694,0,1,1,24.1-23.691,23.9,23.9,0,0,1-24.1,23.691" transform="translate(-148.269 -206.781)" fill="#852f73"/><path d="M196.719,260.344a23.694,23.694,0,1,1,24.1-23.691,23.9,23.9,0,0,1-24.1,23.691" transform="translate(-148.604 -206.578)" fill="#842f73"/><path d="M197.2,260.054a23.694,23.694,0,1,1,24.1-23.691,23.9,23.9,0,0,1-24.1,23.691" transform="translate(-148.94 -206.374)" fill="#832f74"/><path d="M197.679,259.764a23.694,23.694,0,1,1,24.1-23.691,23.9,23.9,0,0,1-24.1,23.691" transform="translate(-149.275 -206.17)" fill="#832f74"/><path d="M198.16,259.473a23.694,23.694,0,1,1,24.1-23.691,23.9,23.9,0,0,1-24.1,23.691" transform="translate(-149.61 -205.966)" fill="#832f75"/><path d="M198.64,259.18a23.694,23.694,0,1,1,24.1-23.691,23.9,23.9,0,0,1-24.1,23.691" transform="translate(-149.945 -205.76)" fill="#822f75"/><path d="M199.119,258.887a23.694,23.694,0,1,1,24.1-23.691,23.9,23.9,0,0,1-24.1,23.691" transform="translate(-150.279 -205.554)" fill="#812f75"/><path d="M199.6,258.593A23.694,23.694,0,1,1,223.7,234.9a23.9,23.9,0,0,1-24.1,23.691" transform="translate(-150.614 -205.347)" fill="#802f76"/><path d="M200.077,258.3a23.694,23.694,0,1,1,24.1-23.691,23.9,23.9,0,0,1-24.1,23.691" transform="translate(-150.949 -205.139)" fill="#802f76"/><path d="M200.555,258a23.694,23.694,0,1,1,24.1-23.691A23.9,23.9,0,0,1,200.555,258" transform="translate(-151.282 -204.931)" fill="#803077"/><path d="M201.033,257.706a23.694,23.694,0,1,1,24.1-23.692,23.9,23.9,0,0,1-24.1,23.692" transform="translate(-151.616 -204.723)" fill="#7f3077"/><path d="M201.51,257.409a23.694,23.694,0,1,1,24.1-23.691,23.9,23.9,0,0,1-24.1,23.691" transform="translate(-151.949 -204.514)" fill="#7f2f78"/><path d="M201.988,257.11a23.694,23.694,0,1,1,24.1-23.691,23.9,23.9,0,0,1-24.1,23.691" transform="translate(-152.283 -204.304)" fill="#7e2f78"/><path d="M202.465,256.812a23.694,23.694,0,1,1,24.1-23.692,23.9,23.9,0,0,1-24.1,23.692" transform="translate(-152.616 -204.094)" fill="#7d2f79"/><path d="M202.942,256.512a23.694,23.694,0,1,1,24.1-23.691,23.9,23.9,0,0,1-24.1,23.691" transform="translate(-152.949 -203.883)" fill="#7c2f79"/><path d="M203.419,256.212a23.694,23.694,0,1,1,24.1-23.692,23.9,23.9,0,0,1-24.1,23.692" transform="translate(-153.282 -203.672)" fill="#7c2f79"/><path d="M203.9,255.911A23.694,23.694,0,1,1,228,232.22a23.9,23.9,0,0,1-24.1,23.691" transform="translate(-153.614 -203.461)" fill="#7c2f7a"/><path d="M204.37,255.609a23.694,23.694,0,1,1,24.1-23.692,23.9,23.9,0,0,1-24.1,23.692" transform="translate(-153.946 -203.248)" fill="#7a2f7a"/><path d="M204.846,255.306a23.694,23.694,0,1,1,24.1-23.692,23.9,23.9,0,0,1-24.1,23.692" transform="translate(-154.278 -203.035)" fill="#7a307b"/><path d="M205.322,255a23.694,23.694,0,1,1,24.1-23.691A23.9,23.9,0,0,1,205.322,255" transform="translate(-154.61 -202.822)" fill="#79307b"/><path d="M205.8,254.7a23.694,23.694,0,1,1,24.1-23.691A23.9,23.9,0,0,1,205.8,254.7" transform="translate(-154.942 -202.608)" fill="#78307c"/><path d="M206.272,254.395a23.694,23.694,0,1,1,24.1-23.692,23.9,23.9,0,0,1-24.1,23.692" transform="translate(-155.273 -202.395)" fill="#77307c"/><path d="M206.746,254.089a23.694,23.694,0,1,1,24.1-23.691,23.9,23.9,0,0,1-24.1,23.691" transform="translate(-155.604 -202.179)" fill="#77307c"/><path d="M207.22,253.782a23.694,23.694,0,1,1,24.1-23.691,23.9,23.9,0,0,1-24.1,23.691" transform="translate(-155.935 -201.963)" fill="#76307d"/><path d="M207.694,253.476a23.694,23.694,0,1,1,24.1-23.692,23.9,23.9,0,0,1-24.1,23.692" transform="translate(-156.266 -201.748)" fill="#76307d"/><path d="M208.168,253.169a23.694,23.694,0,1,1,24.1-23.692,23.9,23.9,0,0,1-24.1,23.692" transform="translate(-156.597 -201.532)" fill="#75307e"/><path d="M208.64,252.86a23.694,23.694,0,1,1,24.1-23.692,23.9,23.9,0,0,1-24.1,23.692" transform="translate(-156.927 -201.315)" fill="#74307e"/><path d="M209.114,252.553a23.694,23.694,0,1,1,24.1-23.692,23.9,23.9,0,0,1-24.1,23.692" transform="translate(-157.257 -201.099)" fill="#73307e"/><path d="M209.586,252.243a23.694,23.694,0,1,1,24.1-23.691,23.9,23.9,0,0,1-24.1,23.691" transform="translate(-157.586 -200.881)" fill="#72317f"/><path d="M210.058,251.934a23.694,23.694,0,1,1,24.1-23.692,23.9,23.9,0,0,1-24.1,23.692" transform="translate(-157.917 -200.664)" fill="#723180"/><path d="M210.531,251.622a23.694,23.694,0,1,1,24.1-23.692,23.9,23.9,0,0,1-24.1,23.692" transform="translate(-158.247 -200.444)" fill="#703180"/><path d="M211,251.311a23.694,23.694,0,1,1,24.1-23.692A23.9,23.9,0,0,1,211,251.311" transform="translate(-158.576 -200.226)" fill="#703180"/><path d="M211.473,251a23.694,23.694,0,1,1,24.1-23.692A23.9,23.9,0,0,1,211.473,251" transform="translate(-158.904 -200.007)" fill="#703180"/><path d="M211.944,250.687A23.694,23.694,0,1,1,236.044,227a23.9,23.9,0,0,1-24.1,23.692" transform="translate(-159.233 -199.787)" fill="#6f3180"/><path d="M212.414,250.375a23.694,23.694,0,1,1,24.1-23.692,23.9,23.9,0,0,1-24.1,23.692" transform="translate(-159.561 -199.567)" fill="#6e3080"/><path d="M212.885,250.062a23.694,23.694,0,1,1,24.1-23.692,23.9,23.9,0,0,1-24.1,23.692" transform="translate(-159.89 -199.347)" fill="#6d3181"/><path d="M213.354,249.747a23.694,23.694,0,1,1,24.1-23.692,23.9,23.9,0,0,1-24.1,23.692" transform="translate(-160.217 -199.126)" fill="#6c3181"/><path d="M213.824,249.433a23.694,23.694,0,1,1,24.1-23.692,23.9,23.9,0,0,1-24.1,23.692" transform="translate(-160.546 -198.905)" fill="#6c3182"/><path d="M214.293,249.118a23.694,23.694,0,1,1,24.1-23.692,23.9,23.9,0,0,1-24.1,23.692" transform="translate(-160.873 -198.683)" fill="#6b3182"/><path d="M214.763,248.8a23.694,23.694,0,1,1,24.1-23.692,23.9,23.9,0,0,1-24.1,23.692" transform="translate(-161.201 -198.462)" fill="#6a3183"/><path d="M215.231,248.487a23.694,23.694,0,1,1,24.1-23.692,23.9,23.9,0,0,1-24.1,23.692" transform="translate(-161.528 -198.24)" fill="#693183"/><path d="M215.7,248.171a23.694,23.694,0,1,1,24.1-23.692,23.9,23.9,0,0,1-24.1,23.692" transform="translate(-161.854 -198.017)" fill="#693183"/><path d="M216.167,247.854a23.694,23.694,0,1,1,24.1-23.692,23.9,23.9,0,0,1-24.1,23.692" transform="translate(-162.181 -197.794)" fill="#693184"/><path d="M216.635,247.536a23.694,23.694,0,1,1,24.1-23.692,23.9,23.9,0,0,1-24.1,23.692" transform="translate(-162.508 -197.571)" fill="#673084"/><path d="M217.1,247.219a23.694,23.694,0,1,1,24.1-23.692,23.9,23.9,0,0,1-24.1,23.692" transform="translate(-162.834 -197.348)" fill="#673084"/><path d="M217.57,246.9a23.694,23.694,0,1,1,24.1-23.692,23.9,23.9,0,0,1-24.1,23.692" transform="translate(-163.161 -197.124)" fill="#663185"/><path d="M218.036,246.582a23.694,23.694,0,1,1,24.1-23.692,23.9,23.9,0,0,1-24.1,23.692" transform="translate(-163.486 -196.9)" fill="#653185"/><path d="M218.5,246.263a23.694,23.694,0,1,1,24.1-23.692,23.9,23.9,0,0,1-24.1,23.692" transform="translate(-163.811 -196.676)" fill="#643186"/><path d="M218.968,245.943a23.694,23.694,0,1,1,24.1-23.692,23.9,23.9,0,0,1-24.1,23.692" transform="translate(-164.137 -196.45)" fill="#633186"/><path d="M219.434,245.623a23.694,23.694,0,1,1,24.1-23.692,23.9,23.9,0,0,1-24.1,23.692" transform="translate(-164.462 -196.225)" fill="#623187"/><path d="M219.9,245.3A23.694,23.694,0,1,1,244,221.611,23.9,23.9,0,0,1,219.9,245.3" transform="translate(-164.787 -196)" fill="#623187"/><path d="M220.364,244.982a23.694,23.694,0,1,1,24.1-23.692,23.9,23.9,0,0,1-24.1,23.692" transform="translate(-165.111 -195.775)" fill="#613087"/><path d="M220.828,244.661a23.694,23.694,0,1,1,24.1-23.692,23.9,23.9,0,0,1-24.1,23.692" transform="translate(-165.435 -195.549)" fill="#603087"/><path d="M221.293,244.339a23.694,23.694,0,1,1,24.1-23.692,23.9,23.9,0,0,1-24.1,23.692" transform="translate(-165.76 -195.322)" fill="#5f3088"/><path d="M221.757,244.018a23.694,23.694,0,1,1,24.1-23.692,23.9,23.9,0,0,1-24.1,23.692" transform="translate(-166.084 -195.097)" fill="#5e3088"/><path d="M222.22,243.7A23.694,23.694,0,1,1,246.32,220a23.9,23.9,0,0,1-24.1,23.692" transform="translate(-166.407 -194.87)" fill="#5d3189"/><path d="M222.683,243.373a23.694,23.694,0,1,1,24.1-23.693,23.9,23.9,0,0,1-24.1,23.693" transform="translate(-166.73 -194.643)" fill="#5c3189"/><path d="M223.146,243.05a23.694,23.694,0,1,1,24.1-23.693,23.9,23.9,0,0,1-24.1,23.693" transform="translate(-167.053 -194.416)" fill="#5c3189"/><path d="M223.608,242.727a23.694,23.694,0,1,1,24.1-23.693,23.9,23.9,0,0,1-24.1,23.693" transform="translate(-167.376 -194.189)" fill="#5b318a"/><path d="M224.071,242.4a23.694,23.694,0,1,1,24.1-23.692,23.9,23.9,0,0,1-24.1,23.692" transform="translate(-167.699 -193.961)" fill="#5a318a"/><path d="M224.532,242.08a23.694,23.694,0,1,1,24.1-23.693,23.9,23.9,0,0,1-24.1,23.693" transform="translate(-168.021 -193.734)" fill="#59308b"/><path d="M224.994,241.756a23.694,23.694,0,1,1,24.1-23.692,23.9,23.9,0,0,1-24.1,23.692" transform="translate(-168.344 -193.506)" fill="#58308b"/><path d="M225.455,241.431a23.694,23.694,0,1,1,24.1-23.693,23.9,23.9,0,0,1-24.1,23.693" transform="translate(-168.665 -193.277)" fill="#57308b"/><path d="M225.916,241.107a23.694,23.694,0,1,1,24.1-23.693,23.9,23.9,0,0,1-24.1,23.693" transform="translate(-168.987 -193.049)" fill="#57308c"/><path d="M226.376,240.782a23.694,23.694,0,1,1,24.1-23.693,23.9,23.9,0,0,1-24.1,23.693" transform="translate(-169.308 -192.82)" fill="#56318c"/><path d="M226.836,240.457a23.694,23.694,0,1,1,24.1-23.692,23.9,23.9,0,0,1-24.1,23.692" transform="translate(-169.629 -192.592)" fill="#55318c"/><path d="M227.3,240.132a23.694,23.694,0,1,1,24.1-23.693,23.9,23.9,0,0,1-24.1,23.693" transform="translate(-169.95 -192.363)" fill="#54318d"/><path d="M227.755,239.806a23.694,23.694,0,1,1,24.1-23.693,23.9,23.9,0,0,1-24.1,23.693" transform="translate(-170.271 -192.135)" fill="#53318d"/><path d="M228.214,239.48a23.694,23.694,0,1,1,24.1-23.693,23.9,23.9,0,0,1-24.1,23.693" transform="translate(-170.591 -191.905)" fill="#52308d"/><path d="M228.672,239.154a23.694,23.694,0,1,1,24.1-23.693,23.9,23.9,0,0,1-24.1,23.693" transform="translate(-170.911 -191.675)" fill="#51308d"/><path d="M229.132,238.827a23.694,23.694,0,1,1,24.1-23.693,23.9,23.9,0,0,1-24.1,23.693" transform="translate(-171.232 -191.446)" fill="#51308e"/><path d="M185.234,275.782h-1.458a.72.72,0,0,1-.761-.744v-4.521a1.171,1.171,0,0,0-2.342,0v5.116a2.148,2.148,0,0,0,2.169,2.127h2.392a.989.989,0,1,0,0-1.978m-6.953,1.978h-5.3a1.143,1.143,0,1,1,0-2.282h2.985a3.056,3.056,0,1,0,0-6.111H171.7a.988.988,0,1,0,0,1.976h4.215c.907,0,1.093.482,1.093,1.078s-.187,1.078-1.093,1.078h-2.93a3.144,3.144,0,1,0,0,6.284H174.1a5.117,5.117,0,0,0-1.093,3.158,5.272,5.272,0,1,0,5.272-5.181m0,8.29a3.109,3.109,0,1,1,3.162-3.108,3.136,3.136,0,0,1-3.162,3.108" transform="translate(-146.578 -246.245)" fill="#fff"/><path d="M125.291,285.566h-8.637a.768.768,0,0,1,0-1.521h6.921a2.617,2.617,0,0,0,0-5.234h-7.757a1.011,1.011,0,1,0,0,2.022h7.753a.627.627,0,0,1,0,1.236H117a2.757,2.757,0,1,0,0,5.5s8.295,0,8.295,0a1,1,0,1,0,0-2m2.8-16.2H126.23A2.491,2.491,0,0,0,123.55,272v4.624a1.161,1.161,0,0,0,2.321,0v-4.586a.633.633,0,0,1,.7-.69h1.513a.988.988,0,1,0,0-1.977m-8.782,8.393a2.146,2.146,0,0,0,2.164-2.127V271.49a2.146,2.146,0,0,0-2.164-2.124h-4.819a2.144,2.144,0,0,0-2.164,2.124v4.141a2.145,2.145,0,0,0,2.164,2.127Zm-4.668-6.416h4.518v4.439h-4.518Z" transform="translate(-106.512 -246.245)" fill="#fff"/><path d="M302.839,275.782h-1.458a.72.72,0,0,1-.761-.744v-4.521a1.171,1.171,0,0,0-2.342,0v5.116a2.148,2.148,0,0,0,2.169,2.127h2.392a.989.989,0,1,0,0-1.978m-6.953,1.978h-5.3a1.143,1.143,0,1,1,0-2.282h2.984a3.056,3.056,0,1,0,0-6.111H289.3a.988.988,0,1,0,0,1.976h4.215c.906,0,1.093.482,1.093,1.078s-.187,1.078-1.093,1.078h-2.93a3.144,3.144,0,1,0,0,6.284h1.121a5.116,5.116,0,0,0-1.094,3.158,5.273,5.273,0,1,0,5.272-5.181m0,8.29a3.109,3.109,0,1,1,3.162-3.108,3.137,3.137,0,0,1-3.162,3.108" transform="translate(-228.681 -246.245)" fill="#fff"/><path d="M242.9,285.566h-8.637a.768.768,0,0,1,0-1.521h6.921a2.617,2.617,0,0,0,0-5.234h-7.757a1.011,1.011,0,1,0,0,2.022h7.752a.627.627,0,0,1,0,1.236H234.6a2.757,2.757,0,1,0,0,5.5s8.295,0,8.295,0a1,1,0,1,0,0-2m2.8-16.2h-1.857A2.492,2.492,0,0,0,241.157,272v4.624a1.161,1.161,0,0,0,2.322,0v-4.586a.633.633,0,0,1,.7-.69h1.513a.988.988,0,1,0,0-1.977m-8.783,8.393a2.146,2.146,0,0,0,2.164-2.127V271.49a2.146,2.146,0,0,0-2.164-2.124h-4.819a2.145,2.145,0,0,0-2.164,2.124v4.141a2.145,2.145,0,0,0,2.164,2.127Zm-4.668-6.416h4.518v4.439h-4.518Z" transform="translate(-188.615 -246.245)" fill="#fff"/></g></g></g></g></svg>