<svg xmlns="http://www.w3.org/2000/svg" width="53" height="53" viewBox="0 0 53 53"><g transform="translate(0.131 -0.486)"><g transform="translate(-0.344 6.273)"><g transform="translate(0 -6)"><circle cx="26.5" cy="26.5" r="26.5" transform="translate(0.213 0.213)" fill="none"/></g></g><g transform="translate(140.9 56.138)"><path d="M-235.827-10.961l6.471-2.753,1.8-2.406,2.406,1.259,5.1-2.64-.827,1.381.827,1.259v1.147l-8.357,7.428,8.357,5.8,1.722,6.286.914-2.092.451,5.435-1.365,2.106-6.188,2.679-3.891,2.345-4.983,3.914H-236.4l.578-3.914,2.438-9.11,1.851-3.9V.8l-2.753-2.636-2.114.683H-239.7V-3.691l.521-2.6,1.6-1.114Z" transform="translate(114 -30)" fill="#fff" stroke="#fff" stroke-width="1"/></g></g></svg>